<?xml version="1.0" encoding="UTF-8" standalone="no"?>
<svg
   xmlns:dc="http://purl.org/dc/elements/1.1/"
   xmlns:cc="http://creativecommons.org/ns#"
   xmlns:rdf="http://www.w3.org/1999/02/22-rdf-syntax-ns#"
   xmlns:svg="http://www.w3.org/2000/svg"
   xmlns="http://www.w3.org/2000/svg"
   xmlns:sodipodi="http://sodipodi.sourceforge.net/DTD/sodipodi-0.dtd"
   xmlns:inkscape="http://www.inkscape.org/namespaces/inkscape"
   version="1.1"
   id="Layer_1"
   x="0px"
   y="0px"
   width="120"
   height="120"
   viewBox="0 0 120 120"
   enable-background="new 0 0 120 120"
   xml:space="preserve"
   inkscape:version="0.48.2 r9819"
   sodipodi:docname="imgur icon cropped.svg"><metadata
   id="metadata17"><rdf:RDF><cc:Work
       rdf:about=""><dc:format>image/svg+xml</dc:format><dc:type
         rdf:resource="http://purl.org/dc/dcmitype/StillImage" /><dc:title></dc:title></cc:Work></rdf:RDF></metadata><defs
   id="defs15">
	
	
	
</defs><sodipodi:namedview
   pagecolor="#868686"
   bordercolor="#666666"
   borderopacity="1"
   objecttolerance="10"
   gridtolerance="10"
   guidetolerance="10"
   inkscape:pageopacity="1"
   inkscape:pageshadow="2"
   inkscape:window-width="1920"
   inkscape:window-height="1028"
   id="namedview13"
   showgrid="false"
   fit-margin-top="0"
   fit-margin-left="0"
   fit-margin-right="0"
   fit-margin-bottom="0"
   inkscape:showpageshadow="false"
   inkscape:zoom="1.9666667"
   inkscape:cx="-19.322034"
   inkscape:cy="60"
   inkscape:window-x="1672"
   inkscape:window-y="-8"
   inkscape:window-maximized="1"
   inkscape:current-layer="Layer_1" />
<rect
   width="120"
   height="120"
   id="rect3"
   x="0"
   y="-1.5543122e-015"
   style="fill:#34373c" />
<path
   style="fill:#ffffff"
   inkscape:connector-curvature="0"
   id="path7"
   d="m 59.565124,37.652727 c -6.113058,0 -10.907107,-4.305124 -10.907107,-9.795372 0,-5.382148 4.914049,-9.79438 10.907107,-9.79438 5.992066,0 10.786116,4.412232 10.786116,9.79438 0,5.490248 -4.79405,9.795372 -10.786116,9.795372" /><path
   style="fill:#ffffff"
   inkscape:connector-curvature="0"
   id="path9"
   d="m 59.565124,44.156529 c 6.351075,0 9.347108,3.983802 9.347108,12.272727 v 34.11967 c 0,8.288926 -2.87405,12.379834 -9.347108,12.379834 -6.471074,0 -9.469091,-4.090908 -9.469091,-12.379834 v -34.11967 c 0,-8.288925 2.997025,-12.272727 9.469091,-12.272727" /><path
   style="fill:#1bb76e;fill-opacity:1"
   inkscape:connector-curvature="0"
   id="path11"
   d="m 59.564132,37.652727 c -6.113057,0 -10.907107,-4.305124 -10.907107,-9.79438 0,-5.382149 4.915041,-9.795372 10.907107,-9.795372 5.992067,0 10.786116,4.413223 10.786116,9.795372 0,5.489256 -4.794049,9.79438 -10.786116,9.79438" />
</svg>