<?xml version="1.0" encoding="UTF-8"?>
<!--
  ~ Copyright (c) 2017 Zac Sweers
  ~
  ~ Licensed under the Apache License, Version 2.0 (the "License");
  ~ you may not use this file except in compliance with the License.
  ~ You may obtain a copy of the License at
  ~
  ~    http://www.apache.org/licenses/LICENSE-2.0
  ~
  ~ Unless required by applicable law or agreed to in writing, software
  ~ distributed under the License is distributed on an "AS IS" BASIS,
  ~ WITHOUT WARRANTIES OR CONDITIONS OF ANY KIND, either express or implied.
  ~ See the License for the specific language governing permissions and
  ~ limitations under the License.
  -->

<svg width="195px" height="195px" viewBox="0 0 195 195" version="1.1"
    xmlns="http://www.w3.org/2000/svg">
    <!-- Generator: Sketch 46.2 (44496) - http://www.bohemiancoding.com/sketch -->
    <title>Monogram</title>
    <desc>Created with Sketch.</desc>
    <defs></defs>
    <g id="Page-1" stroke="none" stroke-width="1" fill="none" fill-rule="evenodd">
        <g id="Monogram" fill-rule="nonzero">
            <rect id="Rectangle-path" fill="#12100E" x="0" y="0" width="195" height="195"></rect>
            <path d="M23.1232493,50.6196355 C23.3655219,48.2229506 22.452687,45.8540943 20.6652661,44.2410346 L2.45798319,22.2804233 L2.45798319,19 L58.9915966,19 L102.689076,114.95238 L141.106443,19 L195,19 L195,22.2804233 L179.432773,37.2245738 C178.090707,38.2488355 177.424975,39.9322823 177.703082,41.5984715 L177.703082,151.401529 C177.424975,153.067718 178.090707,154.751164 179.432773,155.775426 L194.635855,170.719577 L194.635855,174 L118.165266,174 L118.165266,170.719577 L133.914566,155.410935 C135.462185,153.861846 135.462185,153.406232 135.462185,151.037038 L135.462185,62.2833628 L91.6736694,173.635509 L85.7563026,173.635509 L34.7759103,62.2833628 L34.7759103,136.912992 C34.3508544,140.050632 35.3916365,143.209548 37.5980392,145.478542 L58.0812324,170.355086 L58.0812324,173.635509 L0,173.635509 L0,170.355086 L20.4831933,145.478542 C22.6735314,143.205786 23.6536247,140.025915 23.1232493,136.912992 L23.1232493,50.6196355 Z" id="Shape" fill="#FFFFFF"></path>
        </g>
    </g>
</svg>
