<?xml version="1.0" encoding="UTF-8"?>
<svg width="28px" height="24px" viewBox="0 0 28 24" version="1.1" xmlns="http://www.w3.org/2000/svg">
    <!-- Generator: Sketch 64 (93537) - https://sketch.com -->
    <title>Shape</title>
    <desc>Created with Sketch.</desc>
    <g id="Page-1" stroke="none" stroke-width="1" fill="none" fill-rule="evenodd">
        <path d="M23.566,0.166 C24.964,0.166 26.1,1.298 26.1,2.69 C26.1,4.082 24.964,5.214 23.566,5.214 C22.255375,5.214 21.1732656,4.21907813 21.0431216,2.94774023 L21.03,2.69 L21.036,2.622 L16.35,1.524 L14.62,6.972 C17.782,7.086 20.64,7.97 22.752,9.36 C23.31,8.824 24.066,8.49 24.9,8.49 C26.515,8.49 27.8445679,9.72449383 27.9873131,11.2954606 L28,11.576 C28,12.75 27.332,13.76 26.36,14.282 C26.414,14.592 26.448,14.906 26.448,15.226 C26.448,19.788 20.838,23.5 13.942,23.5 C7.046,23.5 1.436,19.788 1.436,15.226 C1.436,14.888 1.476,14.554 1.536,14.226 C0.622,13.688 8.8817842e-16,12.708 8.8817842e-16,11.576 C8.8817842e-16,9.874 1.39,8.49 3.098,8.488 C3.91,8.488 4.644,8.808 5.198,9.318 C7.25693333,7.98333333 10.0057867,7.11732444 13.0559283,6.97526696 L13.714,6.956 L15.644,0.88 C15.7006667,0.7 15.8670556,0.581111111 16.0482593,0.577731481 L16.158,0.59 L21.208,1.774 C21.578,0.836 22.492,0.166 23.566,0.166 Z M9.752,11.856 C8.734,11.856 7.906,12.68 7.906,13.694 C7.906,14.706 8.734,15.5300073 9.752,15.5300073 C10.768,15.532 11.596,14.708 11.596,13.694 C11.596,12.68 10.768,11.856 9.752,11.856 Z M18.256,11.858 C17.238,11.858 16.412,12.682 16.412,13.696 C16.412,14.708 17.24,15.532 18.256,15.532 C19.272,15.532 20.1,14.708 20.1,13.696 C20.1,12.682 19.274,11.858 18.256,11.858 Z" id="Shape" fill="#FFFFFF" fill-rule="nonzero"></path>
    </g>
</svg>