<?xml version="1.0" encoding="UTF-8"?>
<svg width="171px" height="110px" viewBox="0 0 171 110" version="1.1"
    xmlns="http://www.w3.org/2000/svg">
  <!-- Generator: Sketch 50.2 (55047) - http://www.bohemiancoding.com/sketch -->
  <title>Group</title>
  <desc>Created with Sketch.</desc>
  <defs></defs>
  <g id="Page-1" stroke="none" stroke-width="1" fill="none" fill-rule="evenodd">
    <g id="Group" transform="translate(0.000000, -20.000000)" fill="#000000">
      <path
          d="M77.21875,0.46875 L77.21875,66.0253906 C77.21875,76.9173722 73.8122085,85.5305673 66.9990234,91.8652344 C60.1858383,98.1999015 50.8776632,101.367188 39.0742188,101.367188 C27.4530669,101.367188 18.2246436,98.2910464 11.3886719,92.1386719 C4.5527002,85.9862974 1.06640693,77.5326059 0.9296875,66.7773438 L0.9296875,0.46875 L21.4375,0.46875 L21.4375,66.1621094 C21.4375,72.679069 22.9983568,77.4299981 26.1201172,80.4150391 C29.2418776,83.40008 33.5598683,84.8925781 39.0742188,84.8925781 C50.6042243,84.8925781 56.4602855,78.8314408 56.6425781,66.7089844 L56.6425781,0.46875 L77.21875,0.46875 Z"
          id="U"></path>
      <path
          d="M1,214.898438 L1,149.341797 C1,138.449815 4.40654146,129.83662 11.2197266,123.501953 C18.0329117,117.167286 27.3410868,114 39.1445312,114 C50.7656831,114 59.9941064,117.076141 66.8300781,123.228516 C73.6660498,129.38089 77.1523431,137.834582 77.2890625,148.589844 L77.2890625,214.898438 L56.78125,214.898438 L56.78125,149.205078 C56.78125,142.688118 55.2203932,137.937189 52.0986328,134.952148 C48.9768724,131.967107 44.6588817,130.474609 39.1445312,130.474609 C27.6145257,130.474609 21.7584645,136.535747 21.5761719,148.658203 L21.5761719,214.898438 L1,214.898438 Z"
          id="U"></path>
      <path
          d="M170.765625,64.515625 C170.765625,77.5365234 167.809925,87.9661066 161.898438,95.8046875 C155.98695,103.643268 148.005259,107.5625 137.953125,107.5625 C129.411416,107.5625 122.510443,104.59378 117.25,98.65625 L117.25,138.5 L94.671875,138.5 L94.671875,21.46875 L115.609375,21.46875 L116.390625,29.75 C121.859402,23.1874672 128.994748,19.90625 137.796875,19.90625 C148.213594,19.90625 156.312471,23.7603781 162.09375,31.46875 C167.875029,39.1771219 170.765625,49.8020156 170.765625,63.34375 L170.765625,64.515625 Z M148.1875,62.875 C148.1875,55.0103773 146.794285,48.9427297 144.007812,44.671875 C141.22134,40.4010203 137.171902,38.265625 131.859375,38.265625 C124.776006,38.265625 119.906263,40.9739312 117.25,46.390625 L117.25,81 C120.01043,86.5729445 124.932256,89.359375 132.015625,89.359375 C142.796929,89.359375 148.1875,80.5313383 148.1875,62.875 Z"
          id="p"></path>
    </g>
  </g>
</svg>
